<?xml version="1.0" encoding="UTF-8"?>
<svg id="Layer_2" data-name="Layer 2" xmlns="http://www.w3.org/2000/svg" xmlns:xlink="http://www.w3.org/1999/xlink" viewBox="0 0 134.37 103.41">
  <defs>
    <style>
      .cls-1 {
        fill: url(#linear-gradient);
      }
    </style>
    <linearGradient id="linear-gradient" x1="0" y1="51.71" x2="134.37" y2="51.71" gradientUnits="userSpaceOnUse">
      <stop offset="0" stop-color="#de5251"/>
      <stop offset=".05" stop-color="#dd5d52"/>
      <stop offset=".15" stop-color="#da7a56"/>
      <stop offset=".28" stop-color="#d7a95d"/>
      <stop offset=".31" stop-color="#d6b860"/>
      <stop offset=".36" stop-color="#d4ab62"/>
      <stop offset=".45" stop-color="#ce8a68"/>
      <stop offset=".57" stop-color="#c65571"/>
      <stop offset=".66" stop-color="#c0297a"/>
      <stop offset=".71" stop-color="#99228a"/>
      <stop offset=".77" stop-color="#6e1a9c"/>
      <stop offset=".84" stop-color="#4c14ab"/>
      <stop offset=".9" stop-color="#3310b5"/>
      <stop offset=".95" stop-color="#250dbb"/>
      <stop offset="1" stop-color="#200dbe"/>
    </linearGradient>
  </defs>
  <g id="Wavelet">
    <path class="cls-1" d="m58.92,103.41c-.77,0-1.54-.12-2.29-.38l-.58-.23c-6.47-2.96-8.39-13.46-12.05-50.71-.73-7.43-1.66-16.9-2.71-24.65-1.04,5.92-1.94,12.51-2.57,17.17-2.93,21.61-4.27,31.48-11.44,33.11-1.56.35-5.53.65-8.77-4.26l-.12-.18c-3.67-6.03-5.88-13.81-7.66-20.07-.34-1.2-.73-2.57-1.12-3.88-1.8,1.34-4.27,1.62-6.39.51-2.93-1.54-4.06-5.17-2.52-8.1,1.41-2.67,4.69-8.94,10.75-8.31,6.33.66,8.22,7.3,10.83,16.5.73,2.56,1.5,5.28,2.38,7.91.82-4.77,1.58-10.39,2.18-14.84,3.08-22.7,5.12-33.87,10.43-38.18l.38-.28c2.2-1.51,4.91-1.76,7.25-.67,6.07,2.82,7.61,12.02,11.05,47.06.71,7.24,1.67,16.96,2.78,25.28,1-8.08,1.87-17.53,2.57-25.08,3.41-36.79,4.99-46.51,10.4-49.97,1.9-1.22,4.2-1.49,6.31-.74l.57.24c6.4,3.04,8.3,13.5,11.95,50.51.73,7.37,1.65,16.76,2.7,24.46,1.03-5.83,1.92-12.31,2.54-16.9,2.92-21.39,4.26-31.15,11.41-32.78,1.56-.35,5.54-.65,8.77,4.27l.11.18c3.64,5.98,5.85,13.67,7.62,19.84.34,1.19.73,2.54,1.12,3.84,1.8-1.33,4.28-1.58,6.38-.46,2.92,1.56,4.03,5.19,2.47,8.12-1.4,2.63-4.7,8.79-10.71,8.16-6.3-.67-8.19-7.24-10.8-16.35-.72-2.51-1.48-5.16-2.34-7.74-.8,4.69-1.56,10.18-2.15,14.55-3.07,22.45-5.09,33.5-10.37,37.82l-.37.28c-2.2,1.53-4.92,1.8-7.28.71-6.08-2.8-7.62-11.95-11.06-46.82-.71-7.21-1.67-16.88-2.78-25.16-1,8.07-1.87,17.52-2.57,25.06-3.4,36.76-4.98,46.48-10.36,49.99-1.21.79-2.58,1.19-3.96,1.19Zm13.29-92.85h0s0,0,0,0Z"/>
  </g>
</svg>